<mxfile modified="2020-10-08T12:38:03.043Z" host="app.diagrams.net" agent="5.0 (Windows NT 10.0; Win64; x64) AppleWebKit/537.36 (KHTML, like Gecko) Chrome/86.0.4240.75 Safari/537.36" etag="RTWRZFE_rQ7v0Ps2Ll-o" version="13.7.8" type="github" pages="2">
  <diagram id="d_7f4tTWWCVDiMLqgLV2" name="ci_runner_jenkins_flow">
    <mxGraphModel dx="1038" dy="600" grid="1" gridSize="10" guides="1" tooltips="1" connect="1" arrows="1" fold="1" page="1" pageScale="1" pageWidth="850" pageHeight="1100" math="0" shadow="0">
      <root>
        <mxCell id="sQz1P80SwWylwN8_Y8dJ-0" />
        <mxCell id="sQz1P80SwWylwN8_Y8dJ-1" parent="sQz1P80SwWylwN8_Y8dJ-0" />
        <mxCell id="wWxdLdtjC8k3mTYlaxuf-6" value="" style="edgeStyle=orthogonalEdgeStyle;rounded=0;orthogonalLoop=1;jettySize=auto;html=1;" edge="1" parent="sQz1P80SwWylwN8_Y8dJ-1" source="wWxdLdtjC8k3mTYlaxuf-0" target="wWxdLdtjC8k3mTYlaxuf-5">
          <mxGeometry relative="1" as="geometry" />
        </mxCell>
        <mxCell id="wWxdLdtjC8k3mTYlaxuf-0" value="terminate_previous_running_execution" style="html=1;shadow=0;dashed=0;shape=mxgraph.bootstrap.rrect;rSize=5;strokeColor=none;strokeWidth=1;fillColor=#6C767D;fontColor=#FFFFFF;whiteSpace=wrap;align=left;verticalAlign=middle;spacingLeft=10;fontStyle=1;fontSize=18;" vertex="1" parent="sQz1P80SwWylwN8_Y8dJ-1">
          <mxGeometry x="50" y="100" width="360" height="40" as="geometry" />
        </mxCell>
        <mxCell id="wWxdLdtjC8k3mTYlaxuf-4" value="" style="edgeStyle=orthogonalEdgeStyle;rounded=0;orthogonalLoop=1;jettySize=auto;html=1;" edge="1" parent="sQz1P80SwWylwN8_Y8dJ-1" source="wWxdLdtjC8k3mTYlaxuf-3" target="wWxdLdtjC8k3mTYlaxuf-0">
          <mxGeometry relative="1" as="geometry" />
        </mxCell>
        <mxCell id="wWxdLdtjC8k3mTYlaxuf-3" value="ci_runner_jenkins.py" style="html=1;shadow=0;dashed=0;shape=mxgraph.bootstrap.rrect;rSize=5;strokeColor=none;strokeWidth=1;fillColor=#1CA5B8;fontColor=#FFFFFF;whiteSpace=wrap;align=center;verticalAlign=middle;spacingLeft=0;fontStyle=0;fontSize=16;spacing=5;" vertex="1" parent="sQz1P80SwWylwN8_Y8dJ-1">
          <mxGeometry x="30" y="20" width="180" height="40" as="geometry" />
        </mxCell>
        <mxCell id="wWxdLdtjC8k3mTYlaxuf-8" value="" style="edgeStyle=orthogonalEdgeStyle;rounded=0;orthogonalLoop=1;jettySize=auto;html=1;" edge="1" parent="sQz1P80SwWylwN8_Y8dJ-1" source="wWxdLdtjC8k3mTYlaxuf-5" target="wWxdLdtjC8k3mTYlaxuf-7">
          <mxGeometry relative="1" as="geometry" />
        </mxCell>
        <mxCell id="wWxdLdtjC8k3mTYlaxuf-5" value="run_ManageServer" style="html=1;shadow=0;dashed=0;shape=mxgraph.bootstrap.rrect;rSize=5;strokeColor=none;strokeWidth=1;fillColor=#6C767D;fontColor=#FFFFFF;whiteSpace=wrap;align=center;verticalAlign=middle;spacingLeft=10;fontStyle=1;fontSize=18;" vertex="1" parent="sQz1P80SwWylwN8_Y8dJ-1">
          <mxGeometry x="50" y="160" width="360" height="40" as="geometry" />
        </mxCell>
        <mxCell id="wWxdLdtjC8k3mTYlaxuf-10" value="" style="edgeStyle=orthogonalEdgeStyle;rounded=0;orthogonalLoop=1;jettySize=auto;html=1;" edge="1" parent="sQz1P80SwWylwN8_Y8dJ-1" source="wWxdLdtjC8k3mTYlaxuf-7" target="wWxdLdtjC8k3mTYlaxuf-12">
          <mxGeometry relative="1" as="geometry">
            <mxPoint x="490" y="240" as="targetPoint" />
          </mxGeometry>
        </mxCell>
        <mxCell id="wWxdLdtjC8k3mTYlaxuf-7" value="loadTaskListAssignment" style="html=1;shadow=0;dashed=0;shape=mxgraph.bootstrap.rrect;rSize=5;strokeColor=none;strokeWidth=1;fillColor=#6C767D;fontColor=#FFFFFF;whiteSpace=wrap;align=center;verticalAlign=middle;spacingLeft=10;fontStyle=1;fontSize=18;" vertex="1" parent="sQz1P80SwWylwN8_Y8dJ-1">
          <mxGeometry x="50" y="220" width="360" height="40" as="geometry" />
        </mxCell>
        <mxCell id="wWxdLdtjC8k3mTYlaxuf-12" value="config task-PDG-AOC.json" style="html=1;shadow=0;dashed=0;shape=mxgraph.bootstrap.rrect;rSize=5;strokeColor=none;strokeWidth=1;fillColor=#33A64C;fontColor=#FFFFFF;whiteSpace=wrap;align=center;verticalAlign=middle;spacingLeft=0;fontStyle=0;fontSize=16;spacing=5;" vertex="1" parent="sQz1P80SwWylwN8_Y8dJ-1">
          <mxGeometry x="450" y="220" width="230" height="40" as="geometry" />
        </mxCell>
      </root>
    </mxGraphModel>
  </diagram>
  <diagram id="d1ab7348-05c3-a1e3-ca4d-12c340fd6b49" name="execution_flow">
    <mxGraphModel dx="716" dy="414" grid="1" gridSize="10" guides="1" tooltips="1" connect="1" arrows="1" fold="1" page="1" pageScale="1" pageWidth="1169" pageHeight="827" background="#ffffff" math="0" shadow="0">
      <root>
        <mxCell id="0" />
        <mxCell id="1" parent="0" />
        <mxCell id="kt00gGW7zIKaOjq4i8ix-7" value="" style="edgeStyle=orthogonalEdgeStyle;rounded=0;orthogonalLoop=1;jettySize=auto;html=1;" parent="1" source="kt00gGW7zIKaOjq4i8ix-1" target="AGGvtxTZ_tka4quPCY7R-416" edge="1">
          <mxGeometry relative="1" as="geometry" />
        </mxCell>
        <mxCell id="AGGvtxTZ_tka4quPCY7R-439" style="edgeStyle=orthogonalEdgeStyle;rounded=0;orthogonalLoop=1;jettySize=auto;html=1;exitX=1;exitY=0.5;exitDx=0;exitDy=0;exitPerimeter=0;entryX=0;entryY=0.435;entryDx=0;entryDy=0;entryPerimeter=0;" parent="1" source="AGGvtxTZ_tka4quPCY7R-416" target="AGGvtxTZ_tka4quPCY7R-417" edge="1">
          <mxGeometry relative="1" as="geometry" />
        </mxCell>
        <mxCell id="AGGvtxTZ_tka4quPCY7R-440" style="edgeStyle=orthogonalEdgeStyle;rounded=0;orthogonalLoop=1;jettySize=auto;html=1;exitX=1;exitY=0.5;exitDx=0;exitDy=0;exitPerimeter=0;entryX=0;entryY=0.435;entryDx=0;entryDy=0;entryPerimeter=0;" parent="1" source="AGGvtxTZ_tka4quPCY7R-416" target="AGGvtxTZ_tka4quPCY7R-418" edge="1">
          <mxGeometry relative="1" as="geometry" />
        </mxCell>
        <mxCell id="AGGvtxTZ_tka4quPCY7R-442" style="edgeStyle=orthogonalEdgeStyle;rounded=0;orthogonalLoop=1;jettySize=auto;html=1;exitX=1;exitY=0.5;exitDx=0;exitDy=0;exitPerimeter=0;entryX=0;entryY=0.558;entryDx=0;entryDy=0;entryPerimeter=0;" parent="1" source="AGGvtxTZ_tka4quPCY7R-416" target="AGGvtxTZ_tka4quPCY7R-420" edge="1">
          <mxGeometry relative="1" as="geometry" />
        </mxCell>
        <mxCell id="AGGvtxTZ_tka4quPCY7R-443" style="edgeStyle=orthogonalEdgeStyle;rounded=0;orthogonalLoop=1;jettySize=auto;html=1;exitX=1;exitY=0.5;exitDx=0;exitDy=0;exitPerimeter=0;entryX=-0.017;entryY=0.627;entryDx=0;entryDy=0;entryPerimeter=0;" parent="1" source="AGGvtxTZ_tka4quPCY7R-416" target="AGGvtxTZ_tka4quPCY7R-421" edge="1">
          <mxGeometry relative="1" as="geometry" />
        </mxCell>
        <mxCell id="AGGvtxTZ_tka4quPCY7R-444" style="edgeStyle=orthogonalEdgeStyle;rounded=0;orthogonalLoop=1;jettySize=auto;html=1;exitX=1;exitY=0.5;exitDx=0;exitDy=0;exitPerimeter=0;entryX=0;entryY=0.685;entryDx=0;entryDy=0;entryPerimeter=0;" parent="1" source="AGGvtxTZ_tka4quPCY7R-416" target="AGGvtxTZ_tka4quPCY7R-422" edge="1">
          <mxGeometry relative="1" as="geometry" />
        </mxCell>
        <mxCell id="kt00gGW7zIKaOjq4i8ix-2" style="edgeStyle=orthogonalEdgeStyle;rounded=0;orthogonalLoop=1;jettySize=auto;html=1;exitX=1;exitY=0.5;exitDx=0;exitDy=0;exitPerimeter=0;entryX=-0.02;entryY=0.783;entryDx=0;entryDy=0;entryPerimeter=0;" parent="1" source="AGGvtxTZ_tka4quPCY7R-416" target="AGGvtxTZ_tka4quPCY7R-446" edge="1">
          <mxGeometry relative="1" as="geometry" />
        </mxCell>
        <mxCell id="kt00gGW7zIKaOjq4i8ix-3" style="edgeStyle=orthogonalEdgeStyle;rounded=0;orthogonalLoop=1;jettySize=auto;html=1;exitX=1;exitY=0.5;exitDx=0;exitDy=0;exitPerimeter=0;entryX=0;entryY=0.5;entryDx=0;entryDy=0;entryPerimeter=0;" parent="1" source="AGGvtxTZ_tka4quPCY7R-416" target="AGGvtxTZ_tka4quPCY7R-419" edge="1">
          <mxGeometry relative="1" as="geometry" />
        </mxCell>
        <mxCell id="AGGvtxTZ_tka4quPCY7R-416" value="Execution&lt;br&gt;Server&lt;br&gt;with different tyoe" style="points=[[0,0,0],[0.25,0,0],[0.5,0,0],[0.75,0,0],[1,0,0],[1,0.25,0],[1,0.5,0],[1,0.75,0],[1,1,0],[0.75,1,0],[0.5,1,0],[0.25,1,0],[0,1,0],[0,0.75,0],[0,0.5,0],[0,0.25,0]];rounded=1;absoluteArcSize=1;arcSize=2;html=1;strokeColor=#d6b656;shadow=0;dashed=0;fontSize=12;align=left;verticalAlign=top;spacing=10;spacingTop=-4;fillColor=#fff2cc;" parent="1" vertex="1">
          <mxGeometry x="24.5" y="530" width="120" height="70" as="geometry" />
        </mxCell>
        <mxCell id="AGGvtxTZ_tka4quPCY7R-417" value="BVT-SaaS" style="aspect=fixed;html=1;points=[];align=center;image;fontSize=12;image=img/lib/mscae/VM_Images.svg;" parent="1" vertex="1">
          <mxGeometry x="240" y="250" width="50" height="46" as="geometry" />
        </mxCell>
        <mxCell id="AGGvtxTZ_tka4quPCY7R-418" value="BVT-Onpre" style="aspect=fixed;html=1;points=[];align=center;image;fontSize=12;image=img/lib/mscae/VM_Images.svg;" parent="1" vertex="1">
          <mxGeometry x="240" y="330" width="50" height="46" as="geometry" />
        </mxCell>
        <mxCell id="AGGvtxTZ_tka4quPCY7R-419" value="Full-SaaS" style="aspect=fixed;html=1;points=[];align=center;image;fontSize=12;image=img/lib/mscae/VM_Images.svg;" parent="1" vertex="1">
          <mxGeometry x="240" y="410" width="50" height="46" as="geometry" />
        </mxCell>
        <mxCell id="AGGvtxTZ_tka4quPCY7R-420" value="Full-Onpre" style="aspect=fixed;html=1;points=[];align=center;image;fontSize=12;image=img/lib/mscae/VM_Images.svg;" parent="1" vertex="1">
          <mxGeometry x="240" y="490" width="50" height="46" as="geometry" />
        </mxCell>
        <mxCell id="AGGvtxTZ_tka4quPCY7R-421" value="Pretest-SaaS" style="aspect=fixed;html=1;points=[];align=center;image;fontSize=12;image=img/lib/mscae/VM_Images.svg;" parent="1" vertex="1">
          <mxGeometry x="240" y="571" width="50" height="46" as="geometry" />
        </mxCell>
        <mxCell id="AGGvtxTZ_tka4quPCY7R-422" value="SEG-Full" style="aspect=fixed;html=1;points=[];align=center;image;fontSize=12;image=img/lib/mscae/VM_Images.svg;" parent="1" vertex="1">
          <mxGeometry x="240" y="650" width="50" height="46" as="geometry" />
        </mxCell>
        <mxCell id="oq6rkrJkZ4qZrG0aP0JA-18" value="" style="edgeStyle=orthogonalEdgeStyle;rounded=0;orthogonalLoop=1;jettySize=auto;html=1;" parent="1" source="AGGvtxTZ_tka4quPCY7R-427" target="oq6rkrJkZ4qZrG0aP0JA-3" edge="1">
          <mxGeometry relative="1" as="geometry">
            <mxPoint x="545.46" y="553" as="targetPoint" />
            <Array as="points">
              <mxPoint x="550.46" y="553" />
              <mxPoint x="550.46" y="553" />
            </Array>
          </mxGeometry>
        </mxCell>
        <mxCell id="AGGvtxTZ_tka4quPCY7R-427" value="AWS-File-Server&lt;br&gt;10.129.146.220" style="aspect=fixed;html=1;points=[];align=center;image;fontSize=12;image=img/lib/mscae/VM_Images.svg;" parent="1" vertex="1">
          <mxGeometry x="450.46" y="530" width="50" height="46" as="geometry" />
        </mxCell>
        <mxCell id="AGGvtxTZ_tka4quPCY7R-428" value="BVT-File-Server&lt;br&gt;10.209.108.9" style="aspect=fixed;html=1;points=[];align=center;image;fontSize=12;image=img/lib/mscae/VM_Images.svg;" parent="1" vertex="1">
          <mxGeometry x="450.46" y="290" width="50" height="46" as="geometry" />
        </mxCell>
        <mxCell id="kt00gGW7zIKaOjq4i8ix-6" value="" style="edgeStyle=orthogonalEdgeStyle;rounded=0;orthogonalLoop=1;jettySize=auto;html=1;" parent="1" source="AGGvtxTZ_tka4quPCY7R-430" target="kt00gGW7zIKaOjq4i8ix-1" edge="1">
          <mxGeometry relative="1" as="geometry" />
        </mxCell>
        <mxCell id="AGGvtxTZ_tka4quPCY7R-430" value="LAB-QA-Jenkins&#xa;10.209.108.65" style="shape=image;verticalLabelPosition=bottom;labelBackgroundColor=#ffffff;verticalAlign=top;aspect=fixed;imageAspect=0;image=data:image/png,iVBORw0KGgoAAAANSUhEUgAAAG0AAABuCAYAAAAtbJ34AAAgAElEQVR4Ae19B1hU19b2fb4v/82XezUKysAwvTCNGWAaM3QUEKUJiAUVG8WK2DXWRI29R6PRa9QkxiR2owh2QI09EQUVu9hQY+zG+n7P2jODiN7/eu8fEPJ7nuewZ4ZT93vetdd699r7/AXvllpXA3+pdVf87oLxDrRa+BC8A+0daLWwBmrhJb9j2jvQamEN1MJLfse0d6DVwhqohZf8jmnvQKuFNVALL/lPybTnz5/j1q1buHT5Es6fP8/WCxcu4PLly7h3714thOnlS/7TgEaAbMzOxsTx45HauTOaRjSBv8UKvc4bPlpvGLx8EGj1R0yzaPTo2g2zZs5Efn4+bt68+XKN1IJvtRq0hw8fIi8vDyOHD0dIYBBkIjFkQgm4Lm5wbeAKhUQKvVYLs7c3fDw9oZDK4M7hwsXJBVwOF1KhGNGRTfHZrFk4f+58LYDLdom1ErQnT55g3bp1aNUiCVwXDmRCMTzEUnCcOQyUti3isGz+FBQWrEZp4VZcKtqO84e3oLBgDX789nOMG94XCVFNIBdJ0LB+Qwi5fDQKDMZ3y5bVCuBqHWh79uxBx/Yp4Dg1gMVgQlbPXtDrfFCvTj3EN4vAtjWLgJtHgfsngd+K8fzG0fIVN4uAO8eBeyfwpOwXFO5cg/Ej+sFXr4eLMwcidwHGjh4NYnBNXmoNaKdPn8bA/gMg4LqjcXAIFsydhwN792LIwCGs0hfOHIsn1w8D907i8dVf8PDSQTy8sAf3z+7EvdN5uHdyG+6VbMHd45tx5/gm3C/ZguelO4EbB3G1MAcTh2dBJpKA78ZD36w+uH//fo3FrVaARmZLr/WCl8YTn02fjhPFx7BuzVr4WwMQ3TgIJfuzgYen8eRaIR6U7mMg3T2+CXeObcSdog32NRt3irJxp9i+0me2bsCjU5uBq7uRt3w2fDRquLsScFk1FrgaDRq1XWNHj4GLUwMkxsXj0P79OHzoZ4waPhJuHC56p7XDk+uFwO3jeHjpAO6dzsedYzk2kBg4G23AFee8KIsdv23EHfqdvttXXNmFfT/Oh1ruAQGXjxHDhuPZs2c1jnE1GrTJEyeC49wQXVPTcLm0FOvXrUNWZh8Y9WZ81DuNtU/PbhzFgwv7cPfEZjtYL0BgTCO2VQDmpd/ofxXX4o3ApQL8+OVE8FzdIeYLsWD+gnegvWkNFBQUwJ3jirROnXH31i2sW70GvXpmIi4mHmntW+H5zSI8vX4EDy7sxZ1juXbTRwDZzN+9Yxtxl1hnB+Uufa8IXrHt+0u/FWXj0bl8AKX4x4wxrH3TqjQ4sH//m152tWxXY5nWLT0DZh8DVi1fjpHDhoEqT+epg7/ZjLOHcoHbx/CgdD9Y28XaqhzcProBj87lAb8extPL+/C8tAC/n9yM20UEJpnCiuaw0veibPx+Ng93zu/D0vlTMPnjgTB66SAViNA1PR1kqmvKUuNAIwnqu2XfwdtTx2IvgZs7i6eSk1oisXkCQqy+uHthH56UHcbdkq3lDLtdlA2UHcT1kp2YMHIAopuEI719Ekp2LMXDU1teNpEvgWczn/eO5+Bh6R60TYrH++99gL9/8CELAygAV3socfDAgZqCWc1L7Ply4ULmers2cIGPVoeZU6fi0L59zAFZOH8BRDwB9m76jgFk8wZtDMPV/Ti+Lxu+Bj3++7/eZ2oIue/TRmYBF/MrsMzBsJfLByWbUHpgHaYM74385bOx8aup6No+EVwOtW0iTJ085R1or6uBo0ePMoa5NeQgtlkUft6/HwV5eRg35lNk9sxEl05dIBPLsGXlAqC0oJw9v5/ehrLjedDrdFDJZFg1fxwu71+Fi/tW4tL+VSAWveSMVGrbyv9XlI1n57bj+fkdQGk+c0q+nDIUIp4QLRNb1Jigu0aZx4kTJoDMYaOgYBQfOYLFXy5GWpd0dEvvhqxeWeia3hUeEjnyVs5jlcvce/L4ru7Fx4MyIXLn4UTeUqDsJ/x+agsentyC+yWbbIAxp4QcEzvDKn6v/BsDNQf3T2xi8dvAru0hk3jgxIkTr3vWqv23GgPa77//juRWrcFtyMGX8+dj7arVjFnEsN69eqNPVh90TOkIrVKFY9u+xuPTWxkAxCJiWpOQQCyeOgy4uqsSq3Jw73guW8sZ9c+YVun3ByWbGeN2rpwDgTsfmzZtqnaAXnfCGgPalStX4O9rhY/WCxvXb8DA/gPRs3tPBhiB1q9PPyQ0b4GmIf4MFGIBeYPk1tO6ZdlM3Dj8I+6x3x3eos3tLzu0BjePrLeFABW8yNvFG0Ftme1Y9n0crCvKxumCZXh0aiuuHFgNXx9vzJs773V1WO2/1RjQTp48CYVUjkZBIfh68RJ0y+iG3j17I7OXjWn9+/ZHeFgkeqQkAhfyKjgWNu/v6dltr7KpKBtPz+cjb/UCfDfnE+A87Wfbnkpi4KV9K3H9l3W4x8B68b+nF3Ziysi+KNq8BA9PbkZkSACGfjSs2gF63QlrBGh37961i8E8NA4KwcxpM9C9aw8by3r2ZiWBZvH1w4xR5A2SE1LR+7Oz5CVXPhv3Tm7Hs+tHcPJADtKSE/DgREUzmcNM35yxA7Bk+gj7MW2g3T2xBbhXgpkTRuCTfqnAtT1oFdMEPbr3el0dVvtvbx20O3fuoGe37hCJpHBzdUdoQCADLat3H/TvO4CZxazMLFYa9Sasmj/2BdMcpozAqviZ2FSUjfvnf8KjskLgzglkpnfAwslDgCu7yx0TYuz3sz9BYrPGeHpuO2Pe7aINeHRhF/DwDC4WbkJU40DGxPTkBAT4B7HUhWpHqdIJ3ypoDx48QGaPnuCJJPCXyhAkFMFs9sW4MWMRGx2LZpHN0CqpJXP3Bw4YCLPRFxsWT7SDRrqhg22Ozy9KCrafnM8Dbh4GHhzHyV0rYdJpsWnpdDw5u50B9/vJLbiwZwU0Hh5Y+cVY4NJOZibP7VmJQ7lLsGv1XBh1WnzSLw3kQbq6uKFFfAIuXbpcqRqr9+tbA42UD0oTIMB0YgmOW63or9aAK5GxWKx+nXpwqd8ATnXrQ6fRontGdzQODceCCYNeYx4d4FFpA+7xmW1YMW8sxg3qii3fTsfOlbPhrVYjqlEQnp3bYdclc9ixCBBS9q/9vJaZwqG9OuKv7/2NqSLUq/3t7E8wPLMznJxcIBZL0aVjJ5BJf1vLWwPtHwsWQCCUsLyO3b6+OOlnhadIgvr1GyI6LBQbf/gCv+SvwoxPh8Kd48a8ytjYBGSltmHB74s27YXzUNHJQGkepo7IxHvv/Q11/lYPdf5WH5wGrlg4+SNmCh06JHmHF/etYlJZx6QYPL+8EyV53+LjvmmYNLQXfsn5Eri+F5np7RDhxkOwVAa+SIpRw0e8Lczejoy1e9duaFRquAnF+MpHD4SGYrinFu/Vb4BOrRPwe9kvDLB9m78Dnp3HZxOGo35dJ0RFRqN5ZBhz7R0uv6PyK4N493gOaM1fMRuLpgxjYO1ePZfFd0z9tzsy5PaTY7NqwTj8z/t1MH1Eb+DGXmYq6fenZ7czc5yemoxMoQi5Rh8mswmFIvzw/fdvBbhqZ9qvv/6KuOhouAjFGKzxBIKD8SAoEM0lUghlclw5tgPrvv0cCrEY7/3XB+jUKh5n962FxkMBVxd3CHkCFG39CmT+HIoIA4z1m1V0SGwx2jOSpC7mM2BIorIB5mj7bOb07vFc9v9RfVPxwf/UZTIYdYjS8Wl7cljatUtEd6EItwN8MVGngZtIDF+TGSVvQSWpdtAmT5wEd5EEYTI5bgQE4FFQEM75WWB25SIurhlLxjlesBwZyc2RkhiFAKMen43uizEDMhBqNWPswK74tXC9LSB+xRFxtG0VQCnfxvE/R+kwq7bvFIuRypIcF4kGTi7Y/v0sFhLcO5aLx6e3ISY2EkMkElz098UZPzPaKBRwE0nQs3v3au/drlbQDh8+DK2nDgKhGJtNJsayK/5+OGoxwuLKRetWCcCtYuDibnRuGYPzPy1H3vLP0LZ5U2amSL0gMZeCYjJrL0yjA4DXlQTKa34nFlEeif1/dDwCjZSTiCA/uLu6I3/FHDy7kIffjm5AQIAVM5UKnPUz4bSfCdtNeniKJRCJpdiwfn21mslqA428xX5ZfcARSdBLpcHz4GDGtGKLCaetJrQQimAJ8Mf90n14dHobBqS3w6n8ZYxRuV9Pxd1juXa5qSIIlVnzOiArbm8Dj/TKR+cKWMaWLU2Bers3ss5SCqRzvp6K9/77b/hqxgjg6k8o3bcSRi8tftB54rSfmT1kF/3M+NhTA1eRhIUB1ZluXm2gHThwAEqFCkqxBIctFjwOCsJJqxmFFiMu+JkxUq2CE5ePPTnfMLf7h89HoyRvKVPrH5/ZWkEBqciaioA4AHT89vqS2q+yg2twqXATHl2kVAXbdvdO5AIX8kFt2fgh3eHmwsXJ/G/Z9/zVc+EpFCHf4IMSq4mBRuUhXyP8JFLwhGKsXrWq2thWbaANHTwEHKEY/TUaZhYv+/vhiMWIo3ambTD6wLl+Q2R0bMOebjKBvx0lBti6SJ6Q4/GSTOVot+wgvtR2VfifHRTHvuSMbFg8CeOG9ARu7mdOBgXV1KZt/GoKS8mjdPIFk4bY+tSu7sbnk4fCxHFjYB2zg0bXXepnxnitJ9yEEiS3aoNHjx5VC3DVAtq5c+dg1BshEUmw19eXOR/HreZy0MhEnrKakCSX4+8N3bB01sfA9T2sHaNAmAA8lP0lbhVllwfFjCEESOXVHlw7GERgEbscIQIdb9t3M6FTKfHNzJFY84/xGDe4O0KsJgjd+ejSOg4n85cBd3/GiR1Lce2XdUjv0gZteHyc9zOjyGJi61GribFur68BBokUEqkcO3fu/POAtmjhl3AVitFGoWSAXfK3lgNGlUCOyBmrGdlGH4i4fLjyBJg6PBOndn6H4m1fIykqDKEB/iwJ9f5LvdAOk/hPTGbRBgZy2c9rmYNBjKIUOXJm+qYlw+SlQ3igFa1iIjB5WC8maeHOIbbPpwO7MgfozK7voTcbME6pYKDRtdpW23Vf8DOht0oFV6EEo0aM/HOA9vjxY3Tq0BGuIjEW++jxPDgIFVnmAI3MDT3Ji/Q6iHlC/NXJBQoPD6ZU8Ll85KxYgOdlh8oTeRxen8Psvfw9m6V/3ztdgKcXCnDt0Bp0a5+IEVldsHrBeOxZ+wVOFSxjygelI9C+xERi4KeDusFHo0H9D52xb/0C5K2cw0bYbDR4M2vwAjQbeORNLtd7QSSSoHFoY1y/fr3Kgaty81hSUgIvLx/oJFKUWP1wM8DfzjIjjlrtT62jtBhxzs+EHKMPOigUUPGFqFvXCT27tAMencXD8z+9Atr9E7mgnMYXoNlSwSl//3HZYZQUfI9L+1fiQPZCBPka8fe/1UPdOk6QCETwUquZHhkXEcoUkw/er4u//OV9FsCvXTgBuHUAHdslsnCk2GpEcTnLHGwz4pjViEJfA0JkJG9JsG3bttoP2upVq+EqEKG1hxIPg4Jw1s/3/woaPckUAlz0N2Ol3hsuzi5ITooDjXj5/eL+l8Ep3ogrB1fjQXlvtR28IupL24bnZQexbuF4tGgWxuItnN+B9Ysmok9qMnM4DFotyyIOMBtY+9Y0JICp+Uc2L2ZSFnWAknIzRKkEmcHKLHN8P+9nQg+VkpnIGdOm137QPh0zht34WK0OT4OCUGw14YiDWY7yNU/wCasJhb5GGPkC6HQ6Jm89u15oT/+2xVXUW7142jAUrJjD2inqjilnnD14JgmKOk7bxTfD5QOrgN8OALcOMm2RTCtlbV09uAZPzmxlHiRtT8cl6atXahtwnFyw1aTHyXKv8QXLHKCRdZjnpWVKT+eOnfD06dMqBa5KzSO1Z23bJLPul/VGE+4GBthY5qgAB2iOsgJ4RcxUmtFNqcT7Ti74cekcNozp3qkd5Tn7T89sY4pJfGQj3DqazSq9HDTyIqkj9EQuU/XbJ0SBz+UxlhHQ6xdPwo4fPgMl7WxbNhMrv/iUpdwRa6mHgB6E+rQ9c0D+OcsIOPJ8Nxp9IBdLERwcgrKystoLGl18SHAIFGIpfrZYcMXfyoJpcpcJlPI2zQ5WUUXwrEYmF603erPRml07t2U90C+1a8c2sjirZ8eW6J7Sgom+FB68BFzxRjw6tQU3j2xA51ax+LCOE/761zr44IMP2Weneg3g2tAV1C1DuSIUD5KkFRrsDw2Hi/2+hvKA2sGsyuVxq5FtZ5bKoNZoQfmbVblUKdMoT1Cr8wbdzDk/Pya0soDaAU7lsgLTHBVDaklfDw/WA3DmYA4beMEGBtpNIeXqk4AcYjWz/jNSNCon6dwuzmbKyqPTW7B33RdYPG04po/Kwmej++H7z0fjwPoFuH88l+X94/IukLv/Xl1npCgVuMJis1dNouP6qKQHkBSS5h4ecBUIsWXz5qrErGr702ioLU8sRayHAjcC/HHcYRYd4FT+bo/ZKlbIZX9f5k3W/dAJY4b2YbkbNLqTDRa064Wkchzf/g30nhrMnzCYSU8v0uJeeJYEJmuvKHvYsV7IY+wi8GlgIYUEfDd3NmKHxnJ/7qXFRT/Taz1Hx3USaGesJnRQKlg8unTp0toLWm5OLjh8IdorVczVd9zkK6WDcQ4wLUYGMMlEu8wGtFUowHFzh0ruAWIbDSK8Q8Nw7WyjUTEEwv71C6CSyTFmYFdbeve5Ha+Yysqmk8wp7UsmdN74gRDz+ODzhNCZg8Dn8cAXCDFZ5wnyEMkMvnLt9mumeM3mQYqxYP782gvamtWrwRGIkKpS49cAv5e8RiYHMaa9aOSLrCbmXVKQTZXzqVYDrVCEhq6ukPD4aPChE9q1iMOja4XArSImb9nGo9kV+ov5OJy7CCZvHVpGR+BwziIboy7k4WHJZrY9gURdPNR2kTpCYG3+djoSm4ahQf0GEIlkCE3pi9hhc2EKjwfP1ZU9eAM1atbGkhm0aaYvA0ig9tOomb46Z/bs2gvayhUrGGhdVWqU+Vte3Kzjia1UUj/VGT8Tlvh4IVQigROHA4FYBlPj5gjp0BdqnRHOdT5E6+ZR2Ld1OX4v3cOcD9YzTeaO+r6ObMD6xZNh0XtDyBOid5fW2PrtDFw9uJoNxCDQrh9eh8LcRcyUNo9sBK4rl+WPCPhCCORKeIdEoWnWRDtwCeC7usKZJ0AXpZKZydcBR6ANsoM2+7PPai9o1F1BTOuiVOOSv4V5iw6GOUqSr0hVKPU3s3iovUIBVzc3pj8aQqIR3m0UYj6awyowvNvHUCo1cP6wPpQyDzRvFoFeHVtg3IBULJ4yGP+YOBharSc4YjFESiVc3Plwqu/CRnRaDT5oEuyPxv4WeGs0cGnAYb0KKrkcQr4IDflCqEQSBIqlELg0hC4gAlEDZyB26ByYI1tCyOXCyZ2HNgoPZgWOVTDlZBUItP5/BtCys7PBEQjRVqHCeT/fF+1BBYad9TPjhNWIsVpPeAiEcOZwoPaxoFGngYj5aDaiB81EVP9piB44HdGDZ8GalM6chCCLBSuWr8SM6bMwcOAQpKWmw10kRZA7H/N1XvhIrUEjqRzuAhGc3PngufMRGxaMlBbR6NWpJeaNG8jGVsfGRKChmzuyVGoUWax4EBiIYWoNGgolMMZ3RnivTxE3bC4CktIhFUlQz52PkZ4aJrdVbN8owHa0aV/Mq9qc/yp1+Qvy88ETS5j3WGI1s/bKcaNkYqjton605nIPOLu6QSAQwRKdjKgB0xAz5DNED5iO6IEzmKkK7jIE5pZdYUhMg3dkS4jlaiTFxWFrbi7w/DmePnsGL5MZKzy1QGgIngUH43qAP3KMJnRRquDGE0BvNmLCRz2wZvFkrF06HUlxkfDl8rHBaMSToEBcD7CiLMCCbIMPhAIhtOEJMCamIjj1I8QNn4+ApDQGcLLCg5lxFmvaXX7yHjsy71GEJYsW117zeOTIEXhqdSxO2+drKHf5SaKi7xkqJcQCERpwOFBpDWjcZTAzR8QuAqxJ5jgEdhwAU2IafOI6QN+8IwzxnWFskc4qU2oMgTtPhACzL5ISE6GWyHDY15eZYgovTlnNrC29GeDHclJaSuTgNXCFl6s7wrl8NORw8Z3egHuBgaDuosMWAzPVe331MIpEUDVuDiOdO7YDAjr0R6O0oeAIJeijUtr71mzOiCNOi6c4jS+q8pyRKmUaTdcX4B8IpViKXJMPk3tYTONnRppSiTo8AQTu7tAHN0OzvpOZGSKWhfUYDf/2fWBM6MLAMjTvBENCZwYYgcbWhC4wJmUwIOW+jeDCE0EtFOEXi4XphJTGQF5eocXAgl9KIMo1mmCVSLHUR4/HgX5o4SFHuEyO1QYDTlktbDtqq5hqL5FAQaC1SLefLxW6sHhweQIs9NbinN3DJctBocABXwMsUhnkSlWVz4ZQpaBRsktifCIEIgm+9vFiN0rdG8S0ZjIZOO48WGLaMkeDzGDjbiNhTe4FffNO0Md1gCG+0wugKoNWATxTy67wik2BWq7EIbOJdahWdMuPWUzYazbhC29vNmbgU60nrvmZESYWYxDlXgb5M7WG2FlisXXBNJZIoQhLKAeNHhAPSyP48PnYY9aze3CYetIeKYmVJlXzs/pX+SCNKgWNDPvQIR+xDtChGjVL4KEbpbasl0oFZ1dXWGPbI3bo52jWbwrMLTPgE5vyAigHMG9Q6hPTINEasEXvw3I3KoJGn4kNj4OsmOypAae+MwK5XAgkMoS587BIq2GVvtvojaMmbxQYvaGXKeAZ1ZaZYWaSE9PgrjWio0zK0ugc7RndDzkh8711TBhv3apVlU/PVOWgLVm8GFyhGIkeHsxskShMpuVLHx1c3XlQqHVo2mcSYgbNREBKPzvDOjNzSOaRVmYa/xnT7IASE3iWRpisVqHMv0KfncUIMnmkrizSaWBRqpDWtTsmz5iBvbt2o//AQeAKRJDx+DDK5AhXa+DryoFEobWzjM6fyq7LVarADK3mlb41cvfpIaR0ujGjx1SpE0IHr3LQ9u/fD5VaAy+JFPlmPRNWyQxR+plFIgHXjYugNj1ZHBaaNvQFaJXZ9a9AS0yDR3giomVy28Nh9+rOWk2MCeMUcjRwcoJK44ljR4/iwd27uHzxIs6fOcM8UBpi1X70TPRbmoOEPsOhkCugCYhgjgi1a5qweKiEQuww+bzUt0YxJrGtsUwGd6EI1Olb1UuVg3b79m0kJSSyDsLPdFpmGqlrhkxklloFZ44rfAKbIPajOYjoNfYl02iM7wJDfBcWL73qiKS+tK2BnJbmnSD2UGO9jw43AnzZA7JO74UWPC5UvgHo8PF0SOQqdExOZvU6dMgQDB44EHj+DE2aRmPgVxswPvcQphaUIDE9CxKlzuapJmVAZApCnESEkkppB6TgrDZ4QyKWwM9ixalTp6oas6pnGt3B1ClT2AiZVgoPpt+RxkgC6/d6Lxb0yhVqRPYez9o1U4t05oiUe4mVGWf/ro9pD32cLQRwbEsmUmIKQiuxEKM1KsTQ0+/iAmtCW4xYsR3Tdpagw/BJaFi3LnI2bGBJODRB9e3ffkN401gM/iYHYzfsxccr82AJbQJteCJjGj04rh4ajFa/mnZAaQj91DbT2LtXr2qZjqnKmUag7du3D1qNFnKxhHWzUGo1JX2SgxAqlcKN647gtpmI/Wi23Xu0x2P2Ns1Y0TQmdIE+NgUqnQlmBiCx0R4GJKZBH90WAoUnOFIPOLtw0KRNZ4zLOYSx6/fikzU78Wn2fnhZghDfrBkLys+eOYOiwsOIiEnAsB+2YeLWI2jVazBkXr4spCDTqI1oAalAiOxKGVmk5JCrb5ZKmYdcXVnG1QIaTS+bkZbOGureahUu+NtUfNIbR3lqmDBsikhA3PB5LJimQPpVc2gDhhQK72atoVBoEJYxAr6te7zMzMRUppqorGEwBYRg9NpdGLN+Lz5eXcDWcbmHkDFxHgRuXKxfu5YF5QvnzUN0qxSM3XgAQ5b8CE+9Bd4x7ZgDQuwVmwIRKRIycaBiRhaxbIrOkyX0NItsWuVpBg67Wy2g0cnWrl0LsUQKjViCHSY9TvmZccrPhC0mPeTu7lD5WBAzeBZC04dXcEZsLCINsJxNCQRaGyg1PmiaNR5+7ftU2J68TtqnE0QCMSIS27I2itqpT9buYqAR28Zm74On2R9pKSlsGO5PBfkIb9EOk7YXI7J1RygsjRnL2LHiOoIjVWBUJdPIEo8sBgRJZSyXf87sOY46rfKy2kCjtqN9clvGtm4qahtIizQyTyxeJoW7VIHIzHGIyBwHpoBUBIo+O0wkORxRbeFpCmQqil+73pVAS4UhriPkHmoIORz4BjZC+qezmXkcn/szYx6V7YdNZAL1lUuXULB9G+J7DELvWV/BQ2tkDKOHhFimCY1hHaNkGsnpoECaXPzr/r4Yp9XYWNYkssoD6opPQrWBRifN3pAND7kCYpGE5TSSB0ngDdeo0YDLY52PzfpPs8VmzTvZY7QKbRYDrwt8YtrDKyAcUf2mwK9tJdCoshNS4RPdDiq9FQIOB/yGDeDXqAnSxsxk7dqkrUcw5sefmCc5dfx4LP3qK7ToOwr+YVHwbEwicRpjNrVnfE8DYiViXPY3sweMUtcn6jyRKpdDznWHUChmU/ZWrNSq/lytoFHb1iezN3P/I2Qy1qFIQS9JXFxSR5p3YOq+mWmKDtBeNo2k8vvEEmgR/xQ0xpLEVMYUn2ZtoDL4gU/gNXCGwTcArbOGYcQPW5HQYxAsPt5o1ToZviERUPmGwtSqOwPN1LIbvJu2ZoH3WE81u8YYuRwCLg//p86HjGG+ZgvcXVzZhNjr1q6taqzKj1+toNFZaTRogNWPmckBGlIvzNhh1kPJdYN3aCyTtKzl7KnAMmJPszbQx3aAPr6TDbT+U+HXLouJxuSgEEOIHcYWGTbPLymDgWBq3R0+0W2hNgdDJBCB18AZKqUG1gDQwEUAAApESURBVJAICHl8iNz5UKi9GDtpOzqPV0QLKDTekPMFMIvFqFPfGe/XrQelQonuGV3x86FDoIlrFi9axAbOhwYFg8aTV8dS7aDRTX215CvIJFLwRWJ86a1jbYVVwIeHwZ85IwEd+jF13yZh2Z2RFhnQNYqFh0oHz6Cm0OitiOo/Ff7t+8Inph18opLh1aQFtI3ioAmOgtIaBpm3FWKVD4QeWggUOggVXuALpeC5ciFgqxukIjEkfCFkMgXkciVkEhlLU3B1bgAhmT+eAG5u7miZmIRvly7Frd9+ewWXT0Z9jAb16mPlipWv/K8qfngroNGLCkiNIPVfLaLYzRvtZFIIVDo06zcZ1OHJ3P6KzghzQJIhFUshcnVlvcgqvR/4EiVcXNzgXM8ZLk7OcHfhQMR1Z7PwWAwGhPr7I7JRY0RHNEGTRo3ZNE4mHwNjB81PQjOCS/gCljhEyUMiHh8GL2/ERkWzCdaUcg+sqSBN5W7MwawZM3Fg335QBjUtxUVFbD4UCmuqY0r4twIa3ejFixeR0q49m0iF3OYYqQRC8iB7jUWjriNfeIQJnVmPtXfjOHh4qKFQesJDoWHsoBl4EmJi0KtbN8yYNg2rV67EzoICUOcr9eXduvUbmw2VJo2mynzy5DFoaqcbN27gSGEhlixcCB9PLfThiQjvOhJ+zTvBuU5dDBowgIExfeo0KCQy3Pz1BovBOnfoiB7duuNkyUn2f8cfOn6ziCbQqTU4c+a04+cqK98aaHRHx44dQ3xcczZDAHXvU3JoWPpQhPUcU95LzZyKhFT4t81EWPpwNM2agKb9pkBpDET2uv+3xv9qaSmimzSBpXUvxH+yiIUclPCT3rkLq/BLly5BIZNj+9at7CH7ce1arP/xRyz/4QdWnj17thyY/n36MhO5amXVm8i3ChrdMfUCRDdtxjoQyTyFpPRBk6wJLFZj8hULlm1Bs7lVd1jbZiKwyxBIDUFY9f135ZVGsye86Uo7Pbh/HxfOnEGrhAToYzqiSZ9JCEjpC55AgrCQkPKRL2EhjTBrum34EoH41eIloNTAbVu34uyZF6DNnzcPnAYNMfrjT8qvqao+vHXQ6MbIo0yIaw4pj4fAVl0R2WfSCwXE0a4ldLb3aHeEPiEV7moTpk2axOrlTcFybEc7Ubt68dw5dGzXDhLfMBjsQrVEroanQsneakjbpXVORb/eWew89x88QOHhw9i3dy8zkbdv3S5vwzZt3Mja2a7pGWzbqvxTI0CjG6QXz0nd3eGf0JmZv3LZygFahZJceoFPIAZk2SqT9ncA8iYlbX//3j1cunAeGZ07Q2wMtYUI1CfnqYfQjYvCw4Ws3uldN53apbDPNPvr3DmfY+rkycwZoQxqUnqePnmC/O3boVGqkNmzF7sWtkMV/akxoH3z9TcQc7mwxrZDZN/Jr2WaA0iKxSS+4ejQrl15tbwJWI5taCcC7fKFC+iVkQGRIdgGWot0KPVWuNSrx95rQ9vR6yqT4hPw240buHnjBh49fIjnT5/i2dOnePjgAW7fuoUb164hNzubjQ8fP258+TVV1YcaA9qK5csh5rrBGp2MJn0mVtAfKwTYdrZRIK1sFI+Q4FD8bn9BnQOQNynLQSstxYDemRDpA+2gZbAAnDzIcWNsaQOTJ0xAZFg4Ss+eRUlxMY78/At25eVhx5Yt2L9nD/vt5vXrbCpB1wYNsb4aplyqQaCtYKDRoIewnmNtaj2JxOVC8ctyli6qLTSe3rhw7hx7oN8ELMc2DLT793H10kWMGDwYAq297ywpA55+YXCpVx8ZqanYvnkz2rZqAw+JjL07lJwSUj6IeQP69MWyb75hb5uiUi1XoEl4OK5evVpVBCs/bo0Bbf2P65nLL5fIodZb4RWZVN7OOMxieelILZCr2dsK6W4cgLxJSduT91h26RImjx0LvkoPU+uebNWGREHC47GXvtLs5cEBgWjTshVat2wFAaX8GU34ePgIzP1sNsaPGYv2bZLhIZFCLpGyUKC8ZqvwQ40BjYa8Bvr5w0MsgZTHZ2/GJaGX5ClTUgaMLUh5r2AqE9PAFSmwdMkSVj1vApZjG9qB2qMrFy9i0fwvwJcooAlsCqUhAB4UvIulzKlYtmwZyPmgYcgUkM+aNQtx0TGwmH2h03hCq/FkeSEkEtBAQgrcq2OpMaDRvFKbN29G78xM9n5qCrRJrJWJpVAb/Fn+vsGu3JMjQio8V+GNYYMG/UegUVtIL9KjV33RG3x5Lhx4iEQsrYBkrrFjxrySv0jJtzRlFCkue/fuZWkUx48fx7Vr18rjuv+vQHPcLLnQVCHjx41j7YdMKIJcIGDankLjA0//cHhFJNp6p738kJyU5Nj1jU0k7UAPCXmPK7//AUH+AcjN3oC5s2ezrpeRI4bXmJcBld9chQ81hmkVrol9pHfPHDp0CJ+OHYvwRo3Zy+fkBCCxj1goU7BxZb4GI36zK+8O8/evSjoB6YWMaT8sR8uERNz69Vf8VFAAtYcCY0aPrnw5Nep7jQXNUUvUTpBiMnfuXHTp1Jm9LtlLo4XGQwm5SMzep0bg0vKvwHL8n7YlAZnatPVr1iA+JhZnTp7EyePHERYcig7tU8qVDsd11KSyxoPmqCyaBYcmCyssLGTzT+3YsQNDBg2GS31nfPmPhWwzByhvVAK4duUKcjdsQFxUNIu3CMTOKR1gMZmrLbPKcX//TllrQHvdTdF8HRTQZvXMLP/3GwH2/Dnb/npZGYvFoppE4sgvv+BGWRlGjxoFrosraDqNmrrUatBIdffztSLYPxCOOYT/HdB+vX4du/Pz0aRxGH45eBCPHz7EP+Z9AY5TA6xeXfU5+f/pQ1GrQaN2qU/v3izHg3I2aPl3QCPdkF5hGdGoEVavWIHVK1aidRINiudh+fLl/2mdVvl+tRo0qh0Kap3q1sPsWbNYZf07oD28f5+1ZeGhjVnaAWVa8Tlc5q1SLFZTl1oPWlFREZvJh6Qmx/KvgHNsR2EFDXVKjGvO2rF2bZJZDiO1Z1U9/Z/jGv6TstaDRhXfMaUDi68o7+NNF1JEfr12Dfdu30aPjK4s0YeC+poMluPeaj1odCOLvlwEMU8Ait86pXRg76Rev+5H1stcWlrK8hGp/bpWVoZTJSXYu3s3NqxdiwVz5+GjgYMQaPVnk5gRaLVh+VOARlMUUpcJJZ3SS80b1nNmb/GV0bvZ1J6wGM0IsFhhNZph0HlDq9KwDksexw2uzg3Zfsmt24AArg3LnwI00hHz8/MxZfJk9OjWjeWbhAQEweitZ6Cp5Eqo5AqoPVSMjUYfAwsTYppFoUNKCuj92sXFxczzfAdaNdcA6YmkQzqU+J9++ompJ1u3bIVjzcvLYxlg5B1SChx1u1C7WJuWPwXTalOF/xHX+g60P6IWq/kY70Cr5gr/I073DrQ/ohar+RjvQKvmCv8jTvcOtD+iFqv5GO9Aq+YK/yNO9w60P6IWq/kY70Cr5gr/I073DrQ/ohar+RjvQKvmCv8jTve/4B/3+414ykUAAAAASUVORK5CYII=;" parent="1" vertex="1">
          <mxGeometry x="30" y="210" width="109" height="110" as="geometry" />
        </mxCell>
        <mxCell id="AGGvtxTZ_tka4quPCY7R-431" value="Automation Pipeline" style="dashed=0;outlineConnect=0;html=1;align=center;labelPosition=center;verticalLabelPosition=bottom;verticalAlign=top;shape=mxgraph.weblogos.github" parent="1" vertex="1">
          <mxGeometry x="190" y="47.5" width="75" height="75" as="geometry" />
        </mxCell>
        <mxCell id="AGGvtxTZ_tka4quPCY7R-436" value="" style="edgeStyle=orthogonalEdgeStyle;rounded=0;orthogonalLoop=1;jettySize=auto;html=1;" parent="1" source="AGGvtxTZ_tka4quPCY7R-435" target="AGGvtxTZ_tka4quPCY7R-430" edge="1">
          <mxGeometry relative="1" as="geometry" />
        </mxCell>
        <mxCell id="AGGvtxTZ_tka4quPCY7R-435" value="Office-RD-Jenkins" style="shape=image;verticalLabelPosition=bottom;labelBackgroundColor=#ffffff;verticalAlign=top;aspect=fixed;imageAspect=0;image=data:image/png,iVBORw0KGgoAAAANSUhEUgAAAG0AAABuCAYAAAAtbJ34AAAgAElEQVR4Ae19B1hU19b2fb4v/82XezUKysAwvTCNGWAaM3QUEKUJiAUVG8WK2DXWRI29R6PRa9QkxiR2owh2QI09EQUVu9hQY+zG+n7P2jODiN7/eu8fEPJ7nuewZ4ZT93vetdd699r7/AXvllpXA3+pdVf87oLxDrRa+BC8A+0daLWwBmrhJb9j2jvQamEN1MJLfse0d6DVwhqohZf8jmnvQKuFNVALL/lPybTnz5/j1q1buHT5Es6fP8/WCxcu4PLly7h3714thOnlS/7TgEaAbMzOxsTx45HauTOaRjSBv8UKvc4bPlpvGLx8EGj1R0yzaPTo2g2zZs5Efn4+bt68+XKN1IJvtRq0hw8fIi8vDyOHD0dIYBBkIjFkQgm4Lm5wbeAKhUQKvVYLs7c3fDw9oZDK4M7hwsXJBVwOF1KhGNGRTfHZrFk4f+58LYDLdom1ErQnT55g3bp1aNUiCVwXDmRCMTzEUnCcOQyUti3isGz+FBQWrEZp4VZcKtqO84e3oLBgDX789nOMG94XCVFNIBdJ0LB+Qwi5fDQKDMZ3y5bVCuBqHWh79uxBx/Yp4Dg1gMVgQlbPXtDrfFCvTj3EN4vAtjWLgJtHgfsngd+K8fzG0fIVN4uAO8eBeyfwpOwXFO5cg/Ej+sFXr4eLMwcidwHGjh4NYnBNXmoNaKdPn8bA/gMg4LqjcXAIFsydhwN792LIwCGs0hfOHIsn1w8D907i8dVf8PDSQTy8sAf3z+7EvdN5uHdyG+6VbMHd45tx5/gm3C/ZguelO4EbB3G1MAcTh2dBJpKA78ZD36w+uH//fo3FrVaARmZLr/WCl8YTn02fjhPFx7BuzVr4WwMQ3TgIJfuzgYen8eRaIR6U7mMg3T2+CXeObcSdog32NRt3irJxp9i+0me2bsCjU5uBq7uRt3w2fDRquLsScFk1FrgaDRq1XWNHj4GLUwMkxsXj0P79OHzoZ4waPhJuHC56p7XDk+uFwO3jeHjpAO6dzsedYzk2kBg4G23AFee8KIsdv23EHfqdvttXXNmFfT/Oh1ruAQGXjxHDhuPZs2c1jnE1GrTJEyeC49wQXVPTcLm0FOvXrUNWZh8Y9WZ81DuNtU/PbhzFgwv7cPfEZjtYL0BgTCO2VQDmpd/ofxXX4o3ApQL8+OVE8FzdIeYLsWD+gnegvWkNFBQUwJ3jirROnXH31i2sW70GvXpmIi4mHmntW+H5zSI8vX4EDy7sxZ1juXbTRwDZzN+9Yxtxl1hnB+Uufa8IXrHt+0u/FWXj0bl8AKX4x4wxrH3TqjQ4sH//m152tWxXY5nWLT0DZh8DVi1fjpHDhoEqT+epg7/ZjLOHcoHbx/CgdD9Y28XaqhzcProBj87lAb8extPL+/C8tAC/n9yM20UEJpnCiuaw0veibPx+Ng93zu/D0vlTMPnjgTB66SAViNA1PR1kqmvKUuNAIwnqu2XfwdtTx2IvgZs7i6eSk1oisXkCQqy+uHthH56UHcbdkq3lDLtdlA2UHcT1kp2YMHIAopuEI719Ekp2LMXDU1teNpEvgWczn/eO5+Bh6R60TYrH++99gL9/8CELAygAV3socfDAgZqCWc1L7Ply4ULmers2cIGPVoeZU6fi0L59zAFZOH8BRDwB9m76jgFk8wZtDMPV/Ti+Lxu+Bj3++7/eZ2oIue/TRmYBF/MrsMzBsJfLByWbUHpgHaYM74385bOx8aup6No+EVwOtW0iTJ085R1or6uBo0ePMoa5NeQgtlkUft6/HwV5eRg35lNk9sxEl05dIBPLsGXlAqC0oJw9v5/ehrLjedDrdFDJZFg1fxwu71+Fi/tW4tL+VSAWveSMVGrbyv9XlI1n57bj+fkdQGk+c0q+nDIUIp4QLRNb1Jigu0aZx4kTJoDMYaOgYBQfOYLFXy5GWpd0dEvvhqxeWeia3hUeEjnyVs5jlcvce/L4ru7Fx4MyIXLn4UTeUqDsJ/x+agsentyC+yWbbIAxp4QcEzvDKn6v/BsDNQf3T2xi8dvAru0hk3jgxIkTr3vWqv23GgPa77//juRWrcFtyMGX8+dj7arVjFnEsN69eqNPVh90TOkIrVKFY9u+xuPTWxkAxCJiWpOQQCyeOgy4uqsSq3Jw73guW8sZ9c+YVun3ByWbGeN2rpwDgTsfmzZtqnaAXnfCGgPalStX4O9rhY/WCxvXb8DA/gPRs3tPBhiB1q9PPyQ0b4GmIf4MFGIBeYPk1tO6ZdlM3Dj8I+6x3x3eos3tLzu0BjePrLeFABW8yNvFG0Ftme1Y9n0crCvKxumCZXh0aiuuHFgNXx9vzJs773V1WO2/1RjQTp48CYVUjkZBIfh68RJ0y+iG3j17I7OXjWn9+/ZHeFgkeqQkAhfyKjgWNu/v6dltr7KpKBtPz+cjb/UCfDfnE+A87Wfbnkpi4KV9K3H9l3W4x8B68b+nF3Ziysi+KNq8BA9PbkZkSACGfjSs2gF63QlrBGh37961i8E8NA4KwcxpM9C9aw8by3r2ZiWBZvH1w4xR5A2SE1LR+7Oz5CVXPhv3Tm7Hs+tHcPJADtKSE/DgREUzmcNM35yxA7Bk+gj7MW2g3T2xBbhXgpkTRuCTfqnAtT1oFdMEPbr3el0dVvtvbx20O3fuoGe37hCJpHBzdUdoQCADLat3H/TvO4CZxazMLFYa9Sasmj/2BdMcpozAqviZ2FSUjfvnf8KjskLgzglkpnfAwslDgCu7yx0TYuz3sz9BYrPGeHpuO2Pe7aINeHRhF/DwDC4WbkJU40DGxPTkBAT4B7HUhWpHqdIJ3ypoDx48QGaPnuCJJPCXyhAkFMFs9sW4MWMRGx2LZpHN0CqpJXP3Bw4YCLPRFxsWT7SDRrqhg22Ozy9KCrafnM8Dbh4GHhzHyV0rYdJpsWnpdDw5u50B9/vJLbiwZwU0Hh5Y+cVY4NJOZibP7VmJQ7lLsGv1XBh1WnzSLw3kQbq6uKFFfAIuXbpcqRqr9+tbA42UD0oTIMB0YgmOW63or9aAK5GxWKx+nXpwqd8ATnXrQ6fRontGdzQODceCCYNeYx4d4FFpA+7xmW1YMW8sxg3qii3fTsfOlbPhrVYjqlEQnp3bYdclc9ixCBBS9q/9vJaZwqG9OuKv7/2NqSLUq/3t7E8wPLMznJxcIBZL0aVjJ5BJf1vLWwPtHwsWQCCUsLyO3b6+OOlnhadIgvr1GyI6LBQbf/gCv+SvwoxPh8Kd48a8ytjYBGSltmHB74s27YXzUNHJQGkepo7IxHvv/Q11/lYPdf5WH5wGrlg4+SNmCh06JHmHF/etYlJZx6QYPL+8EyV53+LjvmmYNLQXfsn5Eri+F5np7RDhxkOwVAa+SIpRw0e8Lczejoy1e9duaFRquAnF+MpHD4SGYrinFu/Vb4BOrRPwe9kvDLB9m78Dnp3HZxOGo35dJ0RFRqN5ZBhz7R0uv6PyK4N493gOaM1fMRuLpgxjYO1ePZfFd0z9tzsy5PaTY7NqwTj8z/t1MH1Eb+DGXmYq6fenZ7czc5yemoxMoQi5Rh8mswmFIvzw/fdvBbhqZ9qvv/6KuOhouAjFGKzxBIKD8SAoEM0lUghlclw5tgPrvv0cCrEY7/3XB+jUKh5n962FxkMBVxd3CHkCFG39CmT+HIoIA4z1m1V0SGwx2jOSpC7mM2BIorIB5mj7bOb07vFc9v9RfVPxwf/UZTIYdYjS8Wl7cljatUtEd6EItwN8MVGngZtIDF+TGSVvQSWpdtAmT5wEd5EEYTI5bgQE4FFQEM75WWB25SIurhlLxjlesBwZyc2RkhiFAKMen43uizEDMhBqNWPswK74tXC9LSB+xRFxtG0VQCnfxvE/R+kwq7bvFIuRypIcF4kGTi7Y/v0sFhLcO5aLx6e3ISY2EkMkElz098UZPzPaKBRwE0nQs3v3au/drlbQDh8+DK2nDgKhGJtNJsayK/5+OGoxwuLKRetWCcCtYuDibnRuGYPzPy1H3vLP0LZ5U2amSL0gMZeCYjJrL0yjA4DXlQTKa34nFlEeif1/dDwCjZSTiCA/uLu6I3/FHDy7kIffjm5AQIAVM5UKnPUz4bSfCdtNeniKJRCJpdiwfn21mslqA428xX5ZfcARSdBLpcHz4GDGtGKLCaetJrQQimAJ8Mf90n14dHobBqS3w6n8ZYxRuV9Pxd1juXa5qSIIlVnzOiArbm8Dj/TKR+cKWMaWLU2Bers3ss5SCqRzvp6K9/77b/hqxgjg6k8o3bcSRi8tftB54rSfmT1kF/3M+NhTA1eRhIUB1ZluXm2gHThwAEqFCkqxBIctFjwOCsJJqxmFFiMu+JkxUq2CE5ePPTnfMLf7h89HoyRvKVPrH5/ZWkEBqciaioA4AHT89vqS2q+yg2twqXATHl2kVAXbdvdO5AIX8kFt2fgh3eHmwsXJ/G/Z9/zVc+EpFCHf4IMSq4mBRuUhXyP8JFLwhGKsXrWq2thWbaANHTwEHKEY/TUaZhYv+/vhiMWIo3ambTD6wLl+Q2R0bMOebjKBvx0lBti6SJ6Q4/GSTOVot+wgvtR2VfifHRTHvuSMbFg8CeOG9ARu7mdOBgXV1KZt/GoKS8mjdPIFk4bY+tSu7sbnk4fCxHFjYB2zg0bXXepnxnitJ9yEEiS3aoNHjx5VC3DVAtq5c+dg1BshEUmw19eXOR/HreZy0MhEnrKakCSX4+8N3bB01sfA9T2sHaNAmAA8lP0lbhVllwfFjCEESOXVHlw7GERgEbscIQIdb9t3M6FTKfHNzJFY84/xGDe4O0KsJgjd+ejSOg4n85cBd3/GiR1Lce2XdUjv0gZteHyc9zOjyGJi61GribFur68BBokUEqkcO3fu/POAtmjhl3AVitFGoWSAXfK3lgNGlUCOyBmrGdlGH4i4fLjyBJg6PBOndn6H4m1fIykqDKEB/iwJ9f5LvdAOk/hPTGbRBgZy2c9rmYNBjKIUOXJm+qYlw+SlQ3igFa1iIjB5WC8maeHOIbbPpwO7MgfozK7voTcbME6pYKDRtdpW23Vf8DOht0oFV6EEo0aM/HOA9vjxY3Tq0BGuIjEW++jxPDgIFVnmAI3MDT3Ji/Q6iHlC/NXJBQoPD6ZU8Ll85KxYgOdlh8oTeRxen8Psvfw9m6V/3ztdgKcXCnDt0Bp0a5+IEVldsHrBeOxZ+wVOFSxjygelI9C+xERi4KeDusFHo0H9D52xb/0C5K2cw0bYbDR4M2vwAjQbeORNLtd7QSSSoHFoY1y/fr3Kgaty81hSUgIvLx/oJFKUWP1wM8DfzjIjjlrtT62jtBhxzs+EHKMPOigUUPGFqFvXCT27tAMencXD8z+9Atr9E7mgnMYXoNlSwSl//3HZYZQUfI9L+1fiQPZCBPka8fe/1UPdOk6QCETwUquZHhkXEcoUkw/er4u//OV9FsCvXTgBuHUAHdslsnCk2GpEcTnLHGwz4pjViEJfA0JkJG9JsG3bttoP2upVq+EqEKG1hxIPg4Jw1s/3/woaPckUAlz0N2Ol3hsuzi5ITooDjXj5/eL+l8Ep3ogrB1fjQXlvtR28IupL24bnZQexbuF4tGgWxuItnN+B9Ysmok9qMnM4DFotyyIOMBtY+9Y0JICp+Uc2L2ZSFnWAknIzRKkEmcHKLHN8P+9nQg+VkpnIGdOm137QPh0zht34WK0OT4OCUGw14YiDWY7yNU/wCasJhb5GGPkC6HQ6Jm89u15oT/+2xVXUW7142jAUrJjD2inqjilnnD14JgmKOk7bxTfD5QOrgN8OALcOMm2RTCtlbV09uAZPzmxlHiRtT8cl6atXahtwnFyw1aTHyXKv8QXLHKCRdZjnpWVKT+eOnfD06dMqBa5KzSO1Z23bJLPul/VGE+4GBthY5qgAB2iOsgJ4RcxUmtFNqcT7Ti74cekcNozp3qkd5Tn7T89sY4pJfGQj3DqazSq9HDTyIqkj9EQuU/XbJ0SBz+UxlhHQ6xdPwo4fPgMl7WxbNhMrv/iUpdwRa6mHgB6E+rQ9c0D+OcsIOPJ8Nxp9IBdLERwcgrKystoLGl18SHAIFGIpfrZYcMXfyoJpcpcJlPI2zQ5WUUXwrEYmF603erPRml07t2U90C+1a8c2sjirZ8eW6J7Sgom+FB68BFzxRjw6tQU3j2xA51ax+LCOE/761zr44IMP2Weneg3g2tAV1C1DuSIUD5KkFRrsDw2Hi/2+hvKA2sGsyuVxq5FtZ5bKoNZoQfmbVblUKdMoT1Cr8wbdzDk/Pya0soDaAU7lsgLTHBVDaklfDw/WA3DmYA4beMEGBtpNIeXqk4AcYjWz/jNSNCon6dwuzmbKyqPTW7B33RdYPG04po/Kwmej++H7z0fjwPoFuH88l+X94/IukLv/Xl1npCgVuMJis1dNouP6qKQHkBSS5h4ecBUIsWXz5qrErGr702ioLU8sRayHAjcC/HHcYRYd4FT+bo/ZKlbIZX9f5k3W/dAJY4b2YbkbNLqTDRa064Wkchzf/g30nhrMnzCYSU8v0uJeeJYEJmuvKHvYsV7IY+wi8GlgIYUEfDd3NmKHxnJ/7qXFRT/Taz1Hx3USaGesJnRQKlg8unTp0toLWm5OLjh8IdorVczVd9zkK6WDcQ4wLUYGMMlEu8wGtFUowHFzh0ruAWIbDSK8Q8Nw7WyjUTEEwv71C6CSyTFmYFdbeve5Ha+Yysqmk8wp7UsmdN74gRDz+ODzhNCZg8Dn8cAXCDFZ5wnyEMkMvnLt9mumeM3mQYqxYP782gvamtWrwRGIkKpS49cAv5e8RiYHMaa9aOSLrCbmXVKQTZXzqVYDrVCEhq6ukPD4aPChE9q1iMOja4XArSImb9nGo9kV+ov5OJy7CCZvHVpGR+BwziIboy7k4WHJZrY9gURdPNR2kTpCYG3+djoSm4ahQf0GEIlkCE3pi9hhc2EKjwfP1ZU9eAM1atbGkhm0aaYvA0ig9tOomb46Z/bs2gvayhUrGGhdVWqU+Vte3Kzjia1UUj/VGT8Tlvh4IVQigROHA4FYBlPj5gjp0BdqnRHOdT5E6+ZR2Ld1OX4v3cOcD9YzTeaO+r6ObMD6xZNh0XtDyBOid5fW2PrtDFw9uJoNxCDQrh9eh8LcRcyUNo9sBK4rl+WPCPhCCORKeIdEoWnWRDtwCeC7usKZJ0AXpZKZydcBR6ANsoM2+7PPai9o1F1BTOuiVOOSv4V5iw6GOUqSr0hVKPU3s3iovUIBVzc3pj8aQqIR3m0UYj6awyowvNvHUCo1cP6wPpQyDzRvFoFeHVtg3IBULJ4yGP+YOBharSc4YjFESiVc3Plwqu/CRnRaDT5oEuyPxv4WeGs0cGnAYb0KKrkcQr4IDflCqEQSBIqlELg0hC4gAlEDZyB26ByYI1tCyOXCyZ2HNgoPZgWOVTDlZBUItP5/BtCys7PBEQjRVqHCeT/fF+1BBYad9TPjhNWIsVpPeAiEcOZwoPaxoFGngYj5aDaiB81EVP9piB44HdGDZ8GalM6chCCLBSuWr8SM6bMwcOAQpKWmw10kRZA7H/N1XvhIrUEjqRzuAhGc3PngufMRGxaMlBbR6NWpJeaNG8jGVsfGRKChmzuyVGoUWax4EBiIYWoNGgolMMZ3RnivTxE3bC4CktIhFUlQz52PkZ4aJrdVbN8owHa0aV/Mq9qc/yp1+Qvy88ETS5j3WGI1s/bKcaNkYqjton605nIPOLu6QSAQwRKdjKgB0xAz5DNED5iO6IEzmKkK7jIE5pZdYUhMg3dkS4jlaiTFxWFrbi7w/DmePnsGL5MZKzy1QGgIngUH43qAP3KMJnRRquDGE0BvNmLCRz2wZvFkrF06HUlxkfDl8rHBaMSToEBcD7CiLMCCbIMPhAIhtOEJMCamIjj1I8QNn4+ApDQGcLLCg5lxFmvaXX7yHjsy71GEJYsW117zeOTIEXhqdSxO2+drKHf5SaKi7xkqJcQCERpwOFBpDWjcZTAzR8QuAqxJ5jgEdhwAU2IafOI6QN+8IwzxnWFskc4qU2oMgTtPhACzL5ISE6GWyHDY15eZYgovTlnNrC29GeDHclJaSuTgNXCFl6s7wrl8NORw8Z3egHuBgaDuosMWAzPVe331MIpEUDVuDiOdO7YDAjr0R6O0oeAIJeijUtr71mzOiCNOi6c4jS+q8pyRKmUaTdcX4B8IpViKXJMPk3tYTONnRppSiTo8AQTu7tAHN0OzvpOZGSKWhfUYDf/2fWBM6MLAMjTvBENCZwYYgcbWhC4wJmUwIOW+jeDCE0EtFOEXi4XphJTGQF5eocXAgl9KIMo1mmCVSLHUR4/HgX5o4SFHuEyO1QYDTlktbDtqq5hqL5FAQaC1SLefLxW6sHhweQIs9NbinN3DJctBocABXwMsUhnkSlWVz4ZQpaBRsktifCIEIgm+9vFiN0rdG8S0ZjIZOO48WGLaMkeDzGDjbiNhTe4FffNO0Md1gCG+0wugKoNWATxTy67wik2BWq7EIbOJdahWdMuPWUzYazbhC29vNmbgU60nrvmZESYWYxDlXgb5M7WG2FlisXXBNJZIoQhLKAeNHhAPSyP48PnYY9aze3CYetIeKYmVJlXzs/pX+SCNKgWNDPvQIR+xDtChGjVL4KEbpbasl0oFZ1dXWGPbI3bo52jWbwrMLTPgE5vyAigHMG9Q6hPTINEasEXvw3I3KoJGn4kNj4OsmOypAae+MwK5XAgkMoS587BIq2GVvtvojaMmbxQYvaGXKeAZ1ZaZYWaSE9PgrjWio0zK0ugc7RndDzkh8711TBhv3apVlU/PVOWgLVm8GFyhGIkeHsxskShMpuVLHx1c3XlQqHVo2mcSYgbNREBKPzvDOjNzSOaRVmYa/xnT7IASE3iWRpisVqHMv0KfncUIMnmkrizSaWBRqpDWtTsmz5iBvbt2o//AQeAKRJDx+DDK5AhXa+DryoFEobWzjM6fyq7LVarADK3mlb41cvfpIaR0ujGjx1SpE0IHr3LQ9u/fD5VaAy+JFPlmPRNWyQxR+plFIgHXjYugNj1ZHBaaNvQFaJXZ9a9AS0yDR3giomVy28Nh9+rOWk2MCeMUcjRwcoJK44ljR4/iwd27uHzxIs6fOcM8UBpi1X70TPRbmoOEPsOhkCugCYhgjgi1a5qweKiEQuww+bzUt0YxJrGtsUwGd6EI1Olb1UuVg3b79m0kJSSyDsLPdFpmGqlrhkxklloFZ44rfAKbIPajOYjoNfYl02iM7wJDfBcWL73qiKS+tK2BnJbmnSD2UGO9jw43AnzZA7JO74UWPC5UvgHo8PF0SOQqdExOZvU6dMgQDB44EHj+DE2aRmPgVxswPvcQphaUIDE9CxKlzuapJmVAZApCnESEkkppB6TgrDZ4QyKWwM9ixalTp6oas6pnGt3B1ClT2AiZVgoPpt+RxkgC6/d6Lxb0yhVqRPYez9o1U4t05oiUe4mVGWf/ro9pD32cLQRwbEsmUmIKQiuxEKM1KsTQ0+/iAmtCW4xYsR3Tdpagw/BJaFi3LnI2bGBJODRB9e3ffkN401gM/iYHYzfsxccr82AJbQJteCJjGj04rh4ajFa/mnZAaQj91DbT2LtXr2qZjqnKmUag7du3D1qNFnKxhHWzUGo1JX2SgxAqlcKN647gtpmI/Wi23Xu0x2P2Ns1Y0TQmdIE+NgUqnQlmBiCx0R4GJKZBH90WAoUnOFIPOLtw0KRNZ4zLOYSx6/fikzU78Wn2fnhZghDfrBkLys+eOYOiwsOIiEnAsB+2YeLWI2jVazBkXr4spCDTqI1oAalAiOxKGVmk5JCrb5ZKmYdcXVnG1QIaTS+bkZbOGureahUu+NtUfNIbR3lqmDBsikhA3PB5LJimQPpVc2gDhhQK72atoVBoEJYxAr6te7zMzMRUppqorGEwBYRg9NpdGLN+Lz5eXcDWcbmHkDFxHgRuXKxfu5YF5QvnzUN0qxSM3XgAQ5b8CE+9Bd4x7ZgDQuwVmwIRKRIycaBiRhaxbIrOkyX0NItsWuVpBg67Wy2g0cnWrl0LsUQKjViCHSY9TvmZccrPhC0mPeTu7lD5WBAzeBZC04dXcEZsLCINsJxNCQRaGyg1PmiaNR5+7ftU2J68TtqnE0QCMSIS27I2itqpT9buYqAR28Zm74On2R9pKSlsGO5PBfkIb9EOk7YXI7J1RygsjRnL2LHiOoIjVWBUJdPIEo8sBgRJZSyXf87sOY46rfKy2kCjtqN9clvGtm4qahtIizQyTyxeJoW7VIHIzHGIyBwHpoBUBIo+O0wkORxRbeFpCmQqil+73pVAS4UhriPkHmoIORz4BjZC+qezmXkcn/szYx6V7YdNZAL1lUuXULB9G+J7DELvWV/BQ2tkDKOHhFimCY1hHaNkGsnpoECaXPzr/r4Yp9XYWNYkssoD6opPQrWBRifN3pAND7kCYpGE5TSSB0ngDdeo0YDLY52PzfpPs8VmzTvZY7QKbRYDrwt8YtrDKyAcUf2mwK9tJdCoshNS4RPdDiq9FQIOB/yGDeDXqAnSxsxk7dqkrUcw5sefmCc5dfx4LP3qK7ToOwr+YVHwbEwicRpjNrVnfE8DYiViXPY3sweMUtcn6jyRKpdDznWHUChmU/ZWrNSq/lytoFHb1iezN3P/I2Qy1qFIQS9JXFxSR5p3YOq+mWmKDtBeNo2k8vvEEmgR/xQ0xpLEVMYUn2ZtoDL4gU/gNXCGwTcArbOGYcQPW5HQYxAsPt5o1ToZviERUPmGwtSqOwPN1LIbvJu2ZoH3WE81u8YYuRwCLg//p86HjGG+ZgvcXVzZhNjr1q6taqzKj1+toNFZaTRogNWPmckBGlIvzNhh1kPJdYN3aCyTtKzl7KnAMmJPszbQx3aAPr6TDbT+U+HXLouJxuSgEEOIHcYWGTbPLymDgWBq3R0+0W2hNgdDJBCB18AZKqUG1gDQwEUAAApESURBVJAICHl8iNz5UKi9GDtpOzqPV0QLKDTekPMFMIvFqFPfGe/XrQelQonuGV3x86FDoIlrFi9axAbOhwYFg8aTV8dS7aDRTX215CvIJFLwRWJ86a1jbYVVwIeHwZ85IwEd+jF13yZh2Z2RFhnQNYqFh0oHz6Cm0OitiOo/Ff7t+8Inph18opLh1aQFtI3ioAmOgtIaBpm3FWKVD4QeWggUOggVXuALpeC5ciFgqxukIjEkfCFkMgXkciVkEhlLU3B1bgAhmT+eAG5u7miZmIRvly7Frd9+ewWXT0Z9jAb16mPlipWv/K8qfngroNGLCkiNIPVfLaLYzRvtZFIIVDo06zcZ1OHJ3P6KzghzQJIhFUshcnVlvcgqvR/4EiVcXNzgXM8ZLk7OcHfhQMR1Z7PwWAwGhPr7I7JRY0RHNEGTRo3ZNE4mHwNjB81PQjOCS/gCljhEyUMiHh8GL2/ERkWzCdaUcg+sqSBN5W7MwawZM3Fg335QBjUtxUVFbD4UCmuqY0r4twIa3ejFixeR0q49m0iF3OYYqQRC8iB7jUWjriNfeIQJnVmPtXfjOHh4qKFQesJDoWHsoBl4EmJi0KtbN8yYNg2rV67EzoICUOcr9eXduvUbmw2VJo2mynzy5DFoaqcbN27gSGEhlixcCB9PLfThiQjvOhJ+zTvBuU5dDBowgIExfeo0KCQy3Pz1BovBOnfoiB7duuNkyUn2f8cfOn6ziCbQqTU4c+a04+cqK98aaHRHx44dQ3xcczZDAHXvU3JoWPpQhPUcU95LzZyKhFT4t81EWPpwNM2agKb9pkBpDET2uv+3xv9qaSmimzSBpXUvxH+yiIUclPCT3rkLq/BLly5BIZNj+9at7CH7ce1arP/xRyz/4QdWnj17thyY/n36MhO5amXVm8i3ChrdMfUCRDdtxjoQyTyFpPRBk6wJLFZj8hULlm1Bs7lVd1jbZiKwyxBIDUFY9f135ZVGsye86Uo7Pbh/HxfOnEGrhAToYzqiSZ9JCEjpC55AgrCQkPKRL2EhjTBrum34EoH41eIloNTAbVu34uyZF6DNnzcPnAYNMfrjT8qvqao+vHXQ6MbIo0yIaw4pj4fAVl0R2WfSCwXE0a4ldLb3aHeEPiEV7moTpk2axOrlTcFybEc7Ubt68dw5dGzXDhLfMBjsQrVEroanQsneakjbpXVORb/eWew89x88QOHhw9i3dy8zkbdv3S5vwzZt3Mja2a7pGWzbqvxTI0CjG6QXz0nd3eGf0JmZv3LZygFahZJceoFPIAZk2SqT9ncA8iYlbX//3j1cunAeGZ07Q2wMtYUI1CfnqYfQjYvCw4Ws3uldN53apbDPNPvr3DmfY+rkycwZoQxqUnqePnmC/O3boVGqkNmzF7sWtkMV/akxoH3z9TcQc7mwxrZDZN/Jr2WaA0iKxSS+4ejQrl15tbwJWI5taCcC7fKFC+iVkQGRIdgGWot0KPVWuNSrx95rQ9vR6yqT4hPw240buHnjBh49fIjnT5/i2dOnePjgAW7fuoUb164hNzubjQ8fP258+TVV1YcaA9qK5csh5rrBGp2MJn0mVtAfKwTYdrZRIK1sFI+Q4FD8bn9BnQOQNynLQSstxYDemRDpA+2gZbAAnDzIcWNsaQOTJ0xAZFg4Ss+eRUlxMY78/At25eVhx5Yt2L9nD/vt5vXrbCpB1wYNsb4aplyqQaCtYKDRoIewnmNtaj2JxOVC8ctyli6qLTSe3rhw7hx7oN8ELMc2DLT793H10kWMGDwYAq297ywpA55+YXCpVx8ZqanYvnkz2rZqAw+JjL07lJwSUj6IeQP69MWyb75hb5uiUi1XoEl4OK5evVpVBCs/bo0Bbf2P65nLL5fIodZb4RWZVN7OOMxieelILZCr2dsK6W4cgLxJSduT91h26RImjx0LvkoPU+uebNWGREHC47GXvtLs5cEBgWjTshVat2wFAaX8GU34ePgIzP1sNsaPGYv2bZLhIZFCLpGyUKC8ZqvwQ40BjYa8Bvr5w0MsgZTHZ2/GJaGX5ClTUgaMLUh5r2AqE9PAFSmwdMkSVj1vApZjG9qB2qMrFy9i0fwvwJcooAlsCqUhAB4UvIulzKlYtmwZyPmgYcgUkM+aNQtx0TGwmH2h03hCq/FkeSEkEtBAQgrcq2OpMaDRvFKbN29G78xM9n5qCrRJrJWJpVAb/Fn+vsGu3JMjQio8V+GNYYMG/UegUVtIL9KjV33RG3x5Lhx4iEQsrYBkrrFjxrySv0jJtzRlFCkue/fuZWkUx48fx7Vr18rjuv+vQHPcLLnQVCHjx41j7YdMKIJcIGDankLjA0//cHhFJNp6p738kJyU5Nj1jU0k7UAPCXmPK7//AUH+AcjN3oC5s2ezrpeRI4bXmJcBld9chQ81hmkVrol9pHfPHDp0CJ+OHYvwRo3Zy+fkBCCxj1goU7BxZb4GI36zK+8O8/evSjoB6YWMaT8sR8uERNz69Vf8VFAAtYcCY0aPrnw5Nep7jQXNUUvUTpBiMnfuXHTp1Jm9LtlLo4XGQwm5SMzep0bg0vKvwHL8n7YlAZnatPVr1iA+JhZnTp7EyePHERYcig7tU8qVDsd11KSyxoPmqCyaBYcmCyssLGTzT+3YsQNDBg2GS31nfPmPhWwzByhvVAK4duUKcjdsQFxUNIu3CMTOKR1gMZmrLbPKcX//TllrQHvdTdF8HRTQZvXMLP/3GwH2/Dnb/npZGYvFoppE4sgvv+BGWRlGjxoFrosraDqNmrrUatBIdffztSLYPxCOOYT/HdB+vX4du/Pz0aRxGH45eBCPHz7EP+Z9AY5TA6xeXfU5+f/pQ1GrQaN2qU/v3izHg3I2aPl3QCPdkF5hGdGoEVavWIHVK1aidRINiudh+fLl/2mdVvl+tRo0qh0Kap3q1sPsWbNYZf07oD28f5+1ZeGhjVnaAWVa8Tlc5q1SLFZTl1oPWlFREZvJh6Qmx/KvgHNsR2EFDXVKjGvO2rF2bZJZDiO1Z1U9/Z/jGv6TstaDRhXfMaUDi68o7+NNF1JEfr12Dfdu30aPjK4s0YeC+poMluPeaj1odCOLvlwEMU8Ait86pXRg76Rev+5H1stcWlrK8hGp/bpWVoZTJSXYu3s3NqxdiwVz5+GjgYMQaPVnk5gRaLVh+VOARlMUUpcJJZ3SS80b1nNmb/GV0bvZ1J6wGM0IsFhhNZph0HlDq9KwDksexw2uzg3Zfsmt24AArg3LnwI00hHz8/MxZfJk9OjWjeWbhAQEweitZ6Cp5Eqo5AqoPVSMjUYfAwsTYppFoUNKCuj92sXFxczzfAdaNdcA6YmkQzqU+J9++ompJ1u3bIVjzcvLYxlg5B1SChx1u1C7WJuWPwXTalOF/xHX+g60P6IWq/kY70Cr5gr/I073DrQ/ohar+RjvQKvmCv8jTvcOtD+iFqv5GO9Aq+YK/yNO9w60P6IWq/kY70Cr5gr/I073DrQ/ohar+RjvQKvmCv8jTve/4B/3+414ykUAAAAASUVORK5CYII=;" parent="1" vertex="1">
          <mxGeometry x="30" y="30" width="109" height="110" as="geometry" />
        </mxCell>
        <mxCell id="oq6rkrJkZ4qZrG0aP0JA-20" value="" style="edgeStyle=orthogonalEdgeStyle;rounded=0;orthogonalLoop=1;jettySize=auto;html=1;" parent="1" source="AGGvtxTZ_tka4quPCY7R-445" edge="1">
          <mxGeometry relative="1" as="geometry">
            <mxPoint x="580.46" y="554" as="targetPoint" />
            <Array as="points">
              <mxPoint x="540.46" y="707" />
              <mxPoint x="540.46" y="554" />
            </Array>
          </mxGeometry>
        </mxCell>
        <mxCell id="AGGvtxTZ_tka4quPCY7R-445" value="SEG-File-Server&lt;br&gt;10.129.146.243" style="aspect=fixed;html=1;points=[];align=center;image;fontSize=12;image=img/lib/mscae/VM_Images.svg;" parent="1" vertex="1">
          <mxGeometry x="450.46" y="684" width="50" height="46" as="geometry" />
        </mxCell>
        <mxCell id="AGGvtxTZ_tka4quPCY7R-446" value="SEG-Corp" style="aspect=fixed;html=1;points=[];align=center;image;fontSize=12;image=img/lib/mscae/VM_Images.svg;" parent="1" vertex="1">
          <mxGeometry x="240" y="730" width="50" height="46" as="geometry" />
        </mxCell>
        <mxCell id="kt00gGW7zIKaOjq4i8ix-1" value="ansible" style="dashed=0;outlineConnect=0;html=1;align=center;labelPosition=center;verticalLabelPosition=bottom;verticalAlign=top;shape=mxgraph.weblogos.github" parent="1" vertex="1">
          <mxGeometry x="47" y="415" width="75" height="75" as="geometry" />
        </mxCell>
        <mxCell id="oq6rkrJkZ4qZrG0aP0JA-16" value="" style="edgeStyle=orthogonalEdgeStyle;rounded=0;orthogonalLoop=1;jettySize=auto;html=1;" parent="1" source="kt00gGW7zIKaOjq4i8ix-8" target="oq6rkrJkZ4qZrG0aP0JA-3" edge="1">
          <mxGeometry relative="1" as="geometry">
            <mxPoint x="570.46" y="534" as="targetPoint" />
            <Array as="points">
              <mxPoint x="540" y="420" />
              <mxPoint x="540" y="554" />
            </Array>
          </mxGeometry>
        </mxCell>
        <mxCell id="kt00gGW7zIKaOjq4i8ix-8" value="AWS-File-Server&lt;br&gt;10.129.147.162" style="aspect=fixed;html=1;points=[];align=center;image;fontSize=12;image=img/lib/mscae/VM_Images.svg;" parent="1" vertex="1">
          <mxGeometry x="450.46" y="404" width="50" height="46" as="geometry" />
        </mxCell>
        <mxCell id="oq6rkrJkZ4qZrG0aP0JA-8" value="AWS Instance" style="group;verticalAlign=top;labelPosition=center;verticalLabelPosition=bottom;align=center;" parent="1" vertex="1" connectable="0">
          <mxGeometry x="580.4599999999999" y="474" width="108.00000000000006" height="110" as="geometry" />
        </mxCell>
        <mxCell id="oq6rkrJkZ4qZrG0aP0JA-6" value="" style="outlineConnect=0;fontColor=#232F3E;gradientColor=#F78E04;gradientDirection=north;fillColor=#D05C17;strokeColor=#ffffff;dashed=0;verticalLabelPosition=bottom;verticalAlign=top;align=center;html=1;fontSize=12;fontStyle=0;aspect=fixed;shape=mxgraph.aws4.resourceIcon;resIcon=mxgraph.aws4.ec2;" parent="oq6rkrJkZ4qZrG0aP0JA-8" vertex="1">
          <mxGeometry x="30" width="78" height="78" as="geometry" />
        </mxCell>
        <mxCell id="oq6rkrJkZ4qZrG0aP0JA-5" value="" style="outlineConnect=0;fontColor=#232F3E;gradientColor=#F78E04;gradientDirection=north;fillColor=#D05C17;strokeColor=#ffffff;dashed=0;verticalLabelPosition=bottom;verticalAlign=top;align=center;html=1;fontSize=12;fontStyle=0;aspect=fixed;shape=mxgraph.aws4.resourceIcon;resIcon=mxgraph.aws4.ec2;" parent="oq6rkrJkZ4qZrG0aP0JA-8" vertex="1">
          <mxGeometry x="11.909999999999968" y="16" width="78" height="78" as="geometry" />
        </mxCell>
        <mxCell id="oq6rkrJkZ4qZrG0aP0JA-3" value="" style="outlineConnect=0;fontColor=#232F3E;gradientColor=#F78E04;gradientDirection=north;fillColor=#D05C17;strokeColor=#ffffff;dashed=0;verticalLabelPosition=bottom;verticalAlign=top;align=center;html=1;fontSize=12;fontStyle=0;aspect=fixed;shape=mxgraph.aws4.resourceIcon;resIcon=mxgraph.aws4.ec2;" parent="oq6rkrJkZ4qZrG0aP0JA-8" vertex="1">
          <mxGeometry y="32" width="78" height="78" as="geometry" />
        </mxCell>
        <mxCell id="oq6rkrJkZ4qZrG0aP0JA-12" value="Vcac Instance" style="group;verticalAlign=top;labelPosition=center;verticalLabelPosition=bottom;align=center;" parent="1" vertex="1" connectable="0">
          <mxGeometry x="578.91" y="274" width="111.09000000000003" height="96" as="geometry" />
        </mxCell>
        <mxCell id="oq6rkrJkZ4qZrG0aP0JA-4" value="" style="aspect=fixed;html=1;points=[];align=center;image;fontSize=12;image=img/lib/mscae/VM_Images.svg;" parent="oq6rkrJkZ4qZrG0aP0JA-12" vertex="1">
          <mxGeometry y="26" width="76.09" height="70" as="geometry" />
        </mxCell>
        <mxCell id="oq6rkrJkZ4qZrG0aP0JA-10" value="" style="aspect=fixed;html=1;points=[];align=center;image;fontSize=12;image=img/lib/mscae/VM_Images.svg;" parent="oq6rkrJkZ4qZrG0aP0JA-12" vertex="1">
          <mxGeometry x="15.95999999999998" y="14" width="76.09" height="70" as="geometry" />
        </mxCell>
        <mxCell id="oq6rkrJkZ4qZrG0aP0JA-11" value="" style="aspect=fixed;html=1;points=[];align=center;image;fontSize=12;image=img/lib/mscae/VM_Images.svg;" parent="oq6rkrJkZ4qZrG0aP0JA-12" vertex="1">
          <mxGeometry x="35" width="76.09" height="70" as="geometry" />
        </mxCell>
        <mxCell id="oq6rkrJkZ4qZrG0aP0JA-14" value="Success" style="html=1;shadow=0;dashed=0;shape=mxgraph.bootstrap.rrect;rSize=5;strokeColor=none;strokeWidth=1;fillColor=#33A64C;fontColor=#FFFFFF;whiteSpace=wrap;align=left;verticalAlign=middle;spacingLeft=0;fontStyle=1;fontSize=14;spacing=5;" parent="1" vertex="1">
          <mxGeometry x="670" y="150" width="65" height="20" as="geometry" />
        </mxCell>
        <mxCell id="oq6rkrJkZ4qZrG0aP0JA-24" value="" style="edgeStyle=orthogonalEdgeStyle;rounded=0;orthogonalLoop=1;jettySize=auto;html=1;" parent="1" source="AGGvtxTZ_tka4quPCY7R-428" edge="1">
          <mxGeometry relative="1" as="geometry">
            <mxPoint x="580.46" y="313" as="targetPoint" />
          </mxGeometry>
        </mxCell>
        <mxCell id="AGGvtxTZ_tka4quPCY7R-429" value="Apexone_Auto" style="dashed=0;outlineConnect=0;html=1;align=center;labelPosition=center;verticalLabelPosition=bottom;verticalAlign=top;shape=mxgraph.weblogos.github" parent="1" vertex="1">
          <mxGeometry x="330" y="475.5" width="75" height="75" as="geometry" />
        </mxCell>
      </root>
    </mxGraphModel>
  </diagram>
</mxfile>
